<svg width="171" height="33" viewBox="0 0 171 33" fill="none" xmlns="http://www.w3.org/2000/svg">
<path d="M8.07699 25.7235C10.3358 25.7235 12.2072 25.2285 13.6897 24.2385C15.1721 23.2471 15.914 21.8061 15.914 19.9155C15.7996 17.3649 13.8951 15.4522 10.1993 14.1776L8.21352 13.3567C7.7805 13.2192 7.4716 13.0845 7.28956 12.947C7.20544 12.8903 7.13656 12.8139 7.08896 12.7245C7.04135 12.6351 7.01648 12.5354 7.01652 12.4341C7.01652 11.8649 7.39299 11.5816 8.14594 11.5816C9.08093 11.5816 9.77596 12.0587 10.2324 13.0157L15.3321 11.5802C14.1006 8.52775 11.7273 7.00287 8.21352 7.00287C6.11463 7.00287 4.36877 7.55012 2.97733 8.64325C1.58589 9.735 0.889476 11.1595 0.889476 12.9113C0.889476 13.4585 0.96946 13.9645 1.12943 14.432C1.2894 14.8995 1.52935 15.3093 1.8479 15.6613C2.16784 16.0146 2.47536 16.3212 2.77185 16.5839C3.06835 16.8451 3.44482 17.0913 3.90266 17.3181C4.35774 17.5464 4.70526 17.7114 4.94521 17.8131C5.18516 17.9162 5.51061 18.0359 5.92019 18.172L6.50214 18.3783L8.5569 19.129C9.05748 19.3119 9.38431 19.4645 9.53187 19.5896C9.60397 19.65 9.66132 19.7259 9.69955 19.8117C9.73778 19.8975 9.7559 19.9908 9.75252 20.0846C9.75252 20.6773 9.19539 20.9742 8.07699 20.9742C6.43456 20.9742 5.45269 20.2455 5.13414 18.788L0 19.9499C0.638492 23.7999 3.33174 25.7249 8.07699 25.7249V25.7235ZM24.1234 25.7235C26.3823 25.7235 28.0468 24.8572 29.1196 23.1275V25.3481H36.1693V7.37825H29.1196V17.2178C29.1196 19.2445 28.4232 20.2565 27.0318 20.2565C25.6169 20.2565 24.9095 19.2445 24.9095 17.2178V7.37825H17.8598V17.9011C17.8598 23.1165 19.9477 25.7249 24.1234 25.7249V25.7235ZM46.33 25.3481V15.51C46.33 13.4819 47.025 12.4685 48.4164 12.4685C49.8313 12.4685 50.5402 13.4819 50.5402 15.51V25.3481H57.5884V14.8266C57.5884 9.61125 55.5019 7.00287 51.3262 7.00287C49.0673 7.00287 47.4015 7.86912 46.33 9.59887V7.37825H39.279V25.3481H46.33V25.3481ZM67.5436 25.3481V15.51C67.5436 13.4819 68.2387 12.4685 69.6315 12.4685C71.045 12.4685 71.7524 13.4819 71.7524 15.51V25.3481H78.8034V14.8266C78.8034 9.61125 76.7156 7.00287 72.5399 7.00287C70.281 7.00287 68.6151 7.86912 67.5436 9.59887V7.37825H60.4926V25.3481H67.5436V25.3481ZM89.5792 33L101.01 7.37825H93.6501L90.1584 16.5688L87.0445 7.37825H79.344L86.839 23.606L82.6647 33H89.5792ZM108.431 25.7235C110.689 25.7235 112.561 25.2285 114.043 24.2385C115.527 23.2471 116.269 21.8061 116.269 19.9155C116.155 17.3649 114.249 15.4522 110.553 14.1776L108.567 13.3567C108.134 13.2192 107.827 13.0845 107.643 12.947C107.559 12.8903 107.49 12.8139 107.443 12.7245C107.395 12.6351 107.37 12.5354 107.37 12.4341C107.37 11.8649 107.747 11.5816 108.5 11.5816C109.434 11.5816 110.131 12.0587 110.587 13.0157L115.687 11.5802C114.454 8.52775 112.082 7.00287 108.568 7.00287C106.47 7.00287 104.724 7.55012 103.332 8.64325C101.939 9.73637 101.244 11.1595 101.244 12.9126C101.244 13.4599 101.324 13.9659 101.483 14.4334C101.643 14.9009 101.883 15.3106 102.203 15.6626C102.521 16.016 102.83 16.3226 103.127 16.5853C103.423 16.8465 103.8 17.0926 104.256 17.3195C104.711 17.5477 105.06 17.7128 105.3 17.8145C105.539 17.9176 105.866 18.0373 106.275 18.1734L106.857 18.3796L108.91 19.1304C109.412 19.3133 109.738 19.4659 109.885 19.591C109.958 19.6512 110.015 19.7271 110.054 19.8129C110.092 19.8987 110.111 19.9921 110.107 20.086C110.107 20.6786 109.549 20.9756 108.431 20.9756C106.789 20.9756 105.808 20.2469 105.488 18.7894L100.354 19.9499C100.993 23.7999 103.685 25.7249 108.431 25.7249V25.7235ZM121.945 6.28513C123.2 6.28513 124.169 5.9895 124.855 5.39687C125.537 4.80562 125.881 4.0535 125.881 3.14188C125.881 2.20963 125.55 1.45063 124.888 0.87175C124.226 0.28875 123.245 0 121.945 0C120.645 0 119.663 0.290125 119.001 0.87175C118.339 1.452 118.008 2.20962 118.008 3.14325C118.008 4.0535 118.351 4.80563 119.035 5.39825C119.721 5.9895 120.69 6.28513 121.945 6.28513V6.28513ZM125.47 25.3481V7.37825H118.418V25.3481H125.468H125.47ZM136.144 25.7235C138.539 25.7235 140.249 24.8572 141.276 23.1275V25.3481H148.326V0.649H141.276V9.63325C140.249 7.88013 138.539 7.00287 136.142 7.00287C133.725 7.00287 131.71 7.88563 130.102 9.65113C128.494 11.4153 127.689 13.6524 127.689 16.3639C127.689 19.0726 128.494 21.3111 130.102 23.0766C131.71 24.8408 133.725 25.7235 136.142 25.7235H136.144ZM138.06 20.361C137.055 20.361 136.251 19.9842 135.647 19.2335C135.042 18.4814 134.74 17.5244 134.74 16.3639C134.74 15.202 135.036 14.2464 135.629 13.4943C136.246 12.7421 137.055 12.3668 138.059 12.3668C139.063 12.3668 139.867 12.7421 140.472 13.4943C141.076 14.245 141.378 15.202 141.378 16.3639C141.378 17.5244 141.076 18.4814 140.472 19.2335C139.867 19.9842 139.063 20.361 138.059 20.361H138.06ZM161.088 25.7235C164.669 25.7235 167.464 24.6867 169.472 22.616L166.562 18.7206C165.125 19.8825 163.505 20.4627 161.703 20.4627C160.335 20.4627 159.222 20.1547 158.365 19.5415C157.51 18.9255 157.083 18.3329 157.083 17.7636H170.327C170.441 17.3539 170.498 16.819 170.498 16.159C170.498 13.3347 169.569 11.1031 167.71 9.46275C165.849 7.82238 163.472 7.00287 160.573 7.00287C157.47 7.00287 155.018 7.9255 153.216 9.77075C151.414 11.6146 150.512 13.8352 150.512 16.4312C150.512 19.096 151.463 21.3111 153.369 23.0766C155.275 24.8408 157.847 25.7235 161.088 25.7235V25.7235ZM164.132 14.5186H157.083C157.128 13.6758 157.494 13.0336 158.178 12.5881C158.862 12.144 159.673 11.9226 160.608 11.9226C161.543 11.9226 162.353 12.1495 163.037 12.606C163.723 13.0611 164.087 13.6991 164.132 14.5186Z" fill="#2C7465"/>
</svg>
